<?xml version="1.0" encoding="utf-8" standalone="no"?>
<!DOCTYPE svg PUBLIC "-//W3C//DTD SVG 1.1//EN"
  "http://www.w3.org/Graphics/SVG/1.1/DTD/svg11.dtd">
<svg xmlns:xlink="http://www.w3.org/1999/xlink" width="864pt" height="504pt" viewBox="0 0 864 504" xmlns="http://www.w3.org/2000/svg" version="1.1">
 <metadata>
  <rdf:RDF xmlns:dc="http://purl.org/dc/elements/1.1/" xmlns:cc="http://creativecommons.org/ns#" xmlns:rdf="http://www.w3.org/1999/02/22-rdf-syntax-ns#">
   <cc:Work>
    <dc:type rdf:resource="http://purl.org/dc/dcmitype/StillImage"/>
    <dc:date>2025-06-14T17:34:48.742423</dc:date>
    <dc:format>image/svg+xml</dc:format>
    <dc:creator>
     <cc:Agent>
      <dc:title>Matplotlib v3.9.2, https://matplotlib.org/</dc:title>
     </cc:Agent>
    </dc:creator>
   </cc:Work>
  </rdf:RDF>
 </metadata>
 <defs>
  <style type="text/css">*{stroke-linejoin: round; stroke-linecap: butt}</style>
 </defs>
 <g id="figure_1">
  <g id="patch_1">
   <path d="M 0 504 
L 864 504 
L 864 0 
L 0 0 
z
" style="fill: #ffffff"/>
  </g>
  <g id="axes_1">
   <g id="patch_2">
    <path d="M 10.8 493.2 
L 853.2 493.2 
L 853.2 10.8 
L 10.8 10.8 
z
" style="fill: #ffffff"/>
   </g>
   <g id="matplotlib.axis_1"/>
   <g id="matplotlib.axis_2"/>
   <g id="line2d_1">
    <path d="M 49.090909 471.272727 
L 53.084746 471.155014 
L 57.078582 470.802018 
L 61.072419 470.214108 
L 65.066256 469.391922 
L 69.060092 468.336343 
L 73.053929 467.048492 
L 77.047766 465.529761 
L 81.041602 463.78177 
L 85.035439 461.806409 
L 89.029276 459.605808 
L 93.023112 457.182325 
L 97.016949 454.538518 
L 102.009245 450.928347 
L 107.001541 446.9845 
L 111.993837 442.713555 
L 116.986133 438.122699 
L 121.978428 433.219634 
L 126.970724 428.012597 
L 131.96302 422.510285 
L 136.955316 416.721944 
L 142.946071 409.412116 
L 148.936826 401.722073 
L 154.927581 393.670368 
L 160.918336 385.276492 
L 167.90755 375.078241 
L 174.896764 364.475382 
L 182.884438 351.907163 
L 190.872111 338.910015 
L 199.858243 323.845052 
L 209.842835 306.65201 
L 221.824345 285.546801 
L 238.798151 255.14241 
L 262.761171 212.253077 
L 274.742681 191.280937 
L 284.727273 174.243553 
L 293.713405 159.352616 
L 301.701079 146.536385 
L 309.688752 134.172934 
L 316.677966 123.768067 
L 323.66718 113.784784 
L 329.657935 105.588105 
L 335.64869 97.745075 
L 341.639445 90.274589 
L 347.6302 83.194775 
L 352.622496 77.605648 
L 357.614792 72.309113 
L 362.607088 67.313948 
L 367.599384 62.628593 
L 372.59168 58.260917 
L 377.583975 54.218223 
L 382.576271 50.507273 
L 386.570108 47.781581 
L 390.563945 45.275177 
L 394.557781 42.990702 
L 398.551618 40.930572 
L 402.545455 39.097117 
L 406.539291 37.492211 
L 410.533128 36.117617 
L 414.526965 34.974783 
L 418.520801 34.064988 
L 422.514638 33.389112 
L 426.508475 32.947981 
L 430.502311 32.74199 
L 434.496148 32.771426 
L 438.489985 33.03623 
L 442.483821 33.536118 
L 446.477658 34.270523 
L 450.471495 35.238706 
L 454.465331 36.439615 
L 458.459168 37.871915 
L 462.453005 39.534157 
L 466.446841 41.424494 
L 470.440678 43.540881 
L 474.434515 45.881073 
L 478.428351 48.442597 
L 482.422188 51.222642 
L 487.414484 55.000418 
L 492.40678 59.108688 
L 497.399076 63.540519 
L 502.391371 68.288467 
L 507.383667 73.344604 
L 512.375963 78.70038 
L 517.368259 84.3469 
L 523.359014 91.493086 
L 529.349769 99.026874 
L 535.340524 106.930252 
L 541.331279 115.183899 
L 548.320493 125.229462 
L 555.309707 135.691807 
L 562.298921 146.53647 
L 570.286595 159.352616 
L 579.272727 174.243639 
L 589.257319 191.280966 
L 600.24037 210.487896 
L 615.217257 237.191168 
L 648.16641 296.152799 
L 659.149461 315.301655 
L 669.134052 332.267951 
L 678.120185 347.080555 
L 686.107858 359.816109 
L 693.097072 370.581715 
L 700.086287 380.957516 
L 707.075501 390.90946 
L 713.066256 399.077414 
L 719.057011 406.890128 
L 725.047766 414.328792 
L 731.038521 421.375207 
L 736.030817 426.935467 
L 741.023112 432.202326 
L 746.015408 437.166847 
L 751.007704 441.820807 
L 756 446.156249 
L 760.992296 450.166055 
L 765.984592 453.843507 
L 769.978428 456.541937 
L 773.972265 459.020753 
L 777.966102 461.277312 
L 781.959938 463.309172 
L 785.953775 465.114186 
L 789.947612 466.690396 
L 793.941448 468.036095 
L 797.935285 469.149877 
L 801.929122 470.030507 
L 805.922958 470.677046 
L 809.916795 471.088813 
L 813.910632 471.265368 
L 814.909091 471.272727 
L 814.909091 471.272727 
" clip-path="url(#pabb4307ab2)" style="fill: none; stroke: #1f77b4; stroke-width: 3; stroke-linecap: square"/>
   </g>
   <g id="patch_3">
    <path d="M 10.8 493.2 
L 10.8 10.8 
" style="fill: none; stroke: #000000; stroke-width: 0.8; stroke-linejoin: miter; stroke-linecap: square"/>
   </g>
   <g id="patch_4">
    <path d="M 853.2 493.2 
L 853.2 10.8 
" style="fill: none; stroke: #000000; stroke-width: 0.8; stroke-linejoin: miter; stroke-linecap: square"/>
   </g>
   <g id="patch_5">
    <path d="M 10.8 493.2 
L 853.2 493.2 
" style="fill: none; stroke: #000000; stroke-linejoin: miter; stroke-linecap: square"/>
   </g>
   <g id="patch_6">
    <path d="M 10.8 10.8 
L 853.2 10.8 
" style="fill: none; stroke: #000000; stroke-width: 0.8; stroke-linejoin: miter; stroke-linecap: square"/>
   </g>
  </g>
 </g>
 <defs>
  <clipPath id="pabb4307ab2">
   <rect x="10.8" y="10.8" width="842.4" height="482.4"/>
  </clipPath>
 </defs>
</svg>
