<?xml version="1.0" encoding="utf-8" standalone="no"?>
<!DOCTYPE svg PUBLIC "-//W3C//DTD SVG 1.1//EN"
  "http://www.w3.org/Graphics/SVG/1.1/DTD/svg11.dtd">
<svg xmlns:xlink="http://www.w3.org/1999/xlink" width="864pt" height="504pt" viewBox="0 0 864 504" xmlns="http://www.w3.org/2000/svg" version="1.1">
 <metadata>
  <rdf:RDF xmlns:dc="http://purl.org/dc/elements/1.1/" xmlns:cc="http://creativecommons.org/ns#" xmlns:rdf="http://www.w3.org/1999/02/22-rdf-syntax-ns#">
   <cc:Work>
    <dc:type rdf:resource="http://purl.org/dc/dcmitype/StillImage"/>
    <dc:date>2025-06-14T17:34:48.617757</dc:date>
    <dc:format>image/svg+xml</dc:format>
    <dc:creator>
     <cc:Agent>
      <dc:title>Matplotlib v3.9.2, https://matplotlib.org/</dc:title>
     </cc:Agent>
    </dc:creator>
   </cc:Work>
  </rdf:RDF>
 </metadata>
 <defs>
  <style type="text/css">*{stroke-linejoin: round; stroke-linecap: butt}</style>
 </defs>
 <g id="figure_1">
  <g id="patch_1">
   <path d="M 0 504 
L 864 504 
L 864 0 
L 0 0 
z
" style="fill: #ffffff"/>
  </g>
  <g id="axes_1">
   <g id="patch_2">
    <path d="M 10.8 493.2 
L 853.2 493.2 
L 853.2 10.8 
L 10.8 10.8 
z
" style="fill: #ffffff"/>
   </g>
   <g id="matplotlib.axis_1"/>
   <g id="matplotlib.axis_2"/>
   <g id="line2d_1">
    <path d="M 49.090909 251.999919 
L 50.58811 192.136866 
L 51.33671 169.005953 
L 52.085311 152.636836 
L 52.833911 143.270618 
L 53.582511 139.984926 
L 54.331112 140.953371 
L 55.828312 146.478074 
L 56.576913 146.97084 
L 57.325513 144.363412 
L 58.074114 138.573635 
L 58.822714 130.317876 
L 61.068515 103.212784 
L 61.817115 96.699758 
L 62.565716 91.743245 
L 64.062917 83.263175 
L 64.811517 77.672714 
L 65.560117 70.23905 
L 67.805918 41.588552 
L 68.554519 34.869387 
L 69.303119 32.751639 
L 70.05172 36.675959 
L 70.80032 47.194506 
L 71.54892 63.750959 
L 74.543322 147.246198 
L 75.291922 159.251866 
L 76.040523 164.231445 
L 76.789123 162.350669 
L 77.537723 154.948539 
L 79.783524 123.21068 
L 80.532125 117.275965 
L 81.280725 115.989135 
L 82.029326 119.292208 
L 82.777926 126.229298 
L 85.023727 153.047863 
L 85.772327 159.475182 
L 86.520928 163.800803 
L 87.269528 166.513087 
L 88.766729 170.766869 
L 89.515329 173.932836 
L 91.76113 186.207984 
L 92.509731 187.315636 
L 93.258331 184.355461 
L 94.006931 176.238082 
L 94.755532 162.702994 
L 95.504132 144.507802 
L 97.749933 82.556829 
L 98.498534 68.090012 
L 99.247134 60.192944 
L 99.995734 59.528945 
L 100.744335 65.515458 
L 101.492935 76.434565 
L 102.990136 102.720353 
L 103.738736 112.716875 
L 104.487337 117.933335 
L 105.235937 117.582898 
L 105.984537 112.003361 
L 106.733138 102.500987 
L 108.230339 79.594842 
L 108.978939 70.082376 
L 109.727539 63.631503 
L 110.47614 60.610723 
L 111.22474 60.635962 
L 111.97334 62.804514 
L 114.219142 72.835026 
L 114.967742 76.330745 
L 115.716342 80.891977 
L 116.464943 87.771806 
L 117.213543 98.213833 
L 117.962143 113.053017 
L 118.710744 132.385491 
L 120.207945 180.421928 
L 121.705145 227.177646 
L 122.453746 244.306197 
L 123.202346 255.193811 
L 123.950946 259.583708 
L 124.699547 258.422859 
L 125.448147 253.712844 
L 126.196748 248.139195 
L 126.945348 244.554471 
L 127.693948 245.4267 
L 128.442549 252.368777 
L 129.191149 265.850347 
L 129.939749 285.147386 
L 132.934151 379.85578 
L 133.682751 397.436009 
L 134.431352 410.457382 
L 135.179952 419.342946 
L 135.928552 425.136388 
L 136.677153 429.133705 
L 139.671554 442.250827 
L 140.420155 443.68953 
L 141.168755 442.582735 
L 141.917355 438.197204 
L 142.665956 430.43147 
L 144.163156 408.294272 
L 144.911757 397.341489 
L 145.660357 389.202403 
L 146.408958 385.605829 
L 147.157558 387.503805 
L 147.906158 394.789545 
L 148.654759 406.236109 
L 150.151959 432.376563 
L 150.90056 441.589569 
L 151.64916 445.063784 
L 152.397761 441.506317 
L 153.146361 430.83404 
L 153.894961 414.182204 
L 156.140762 351.746028 
L 156.889363 335.25742 
L 157.637963 323.857446 
L 158.386564 317.88706 
L 159.135164 316.720538 
L 159.883764 319.029947 
L 162.129565 331.463069 
L 162.878166 334.217587 
L 164.375367 338.430383 
L 165.123967 341.69583 
L 165.872567 346.836532 
L 166.621168 354.099114 
L 168.866969 380.891445 
L 169.615569 386.535684 
L 170.36417 388.072492 
L 171.11277 384.876518 
L 171.86137 377.296891 
L 174.107171 345.554605 
L 174.855772 340.13555 
L 175.604372 340.899532 
L 176.352973 348.740467 
L 177.101573 363.321652 
L 178.598774 405.660965 
L 180.095974 447.513055 
L 180.844575 461.794353 
L 181.593175 469.677472 
L 182.341776 471.061736 
L 183.090376 466.892658 
L 183.838976 458.86318 
L 186.084777 430.553849 
L 186.833378 423.890442 
L 187.581978 418.898547 
L 189.079179 410.424904 
L 189.827779 404.904587 
L 190.57638 397.690809 
L 193.570781 362.758996 
L 194.319381 358.196139 
L 195.067982 356.889227 
L 195.816582 358.394551 
L 196.565183 361.375726 
L 197.313783 363.802032 
L 198.062383 363.329206 
L 198.810984 357.788005 
L 199.559584 345.669329 
L 200.308184 326.497712 
L 201.056785 301.000937 
L 204.051186 182.138989 
L 204.799787 161.60553 
L 205.548387 148.077167 
L 206.296987 141.31262 
L 207.045588 139.985373 
L 207.794188 142.021098 
L 208.542789 145.070458 
L 209.291389 147.003876 
L 210.039989 146.324607 
L 210.78859 142.404592 
L 211.53719 135.50597 
L 214.531592 100.396457 
L 215.280192 94.56006 
L 217.525993 81.222139 
L 218.274593 74.933038 
L 219.023194 66.7412 
L 221.268995 38.466794 
L 222.017595 33.373383 
L 222.766196 33.54218 
L 223.514796 40.097381 
L 224.263396 53.162339 
L 225.011997 71.72608 
L 227.257798 137.069763 
L 228.006398 152.849766 
L 228.754999 162.105788 
L 229.503599 164.251314 
L 230.252199 159.943389 
L 231.0008 150.917516 
L 232.498001 128.641339 
L 233.246601 120.318086 
L 233.995201 116.183993 
L 234.743802 116.795697 
L 235.492402 121.708361 
L 236.241002 129.687248 
L 237.738203 148.220877 
L 238.486804 155.87677 
L 239.235404 161.443088 
L 239.984004 165.034789 
L 242.229805 171.904395 
L 242.978406 175.495207 
L 244.475607 184.234194 
L 245.224207 187.044968 
L 245.972807 186.6958 
L 246.721408 181.763399 
L 247.470008 171.45498 
L 248.218608 155.906395 
L 249.715809 114.668354 
L 250.464409 93.691851 
L 251.21301 76.073397 
L 251.96161 64.078095 
L 252.710211 59.064058 
L 253.458811 61.199106 
L 254.207411 69.419168 
L 256.453212 107.196335 
L 257.201813 115.446753 
L 257.950413 118.466802 
L 258.699014 115.924036 
L 259.447614 108.574508 
L 262.442015 67.095525 
L 263.190616 62.017973 
L 263.939216 60.297434 
L 264.687817 61.306439 
L 265.436417 64.029221 
L 268.430818 77.961636 
L 269.179419 83.291561 
L 269.928019 91.461368 
L 270.67662 103.597354 
L 271.42522 120.271526 
L 272.922421 165.286543 
L 274.419621 214.433769 
L 275.168222 234.713109 
L 275.916822 249.451574 
L 276.665423 257.702931 
L 277.414023 259.694001 
L 278.162623 256.824263 
L 279.659824 246.313914 
L 280.408424 244.254909 
L 281.157025 247.421579 
L 281.905625 256.991661 
L 282.654226 272.94934 
L 283.402826 294.134839 
L 285.648627 367.264227 
L 286.397227 387.427782 
L 287.145828 403.185734 
L 287.894428 414.459846 
L 288.643029 421.960141 
L 289.391629 426.879201 
L 291.63743 437.257521 
L 292.38603 440.599813 
L 293.134631 443.067237 
L 293.883231 443.604309 
L 294.631832 441.244421 
L 295.380432 435.476006 
L 296.129032 426.50717 
L 298.374833 393.638272 
L 299.123434 387.143855 
L 299.872034 385.686309 
L 300.620634 389.815955 
L 301.369235 398.972969 
L 303.615036 436.623471 
L 304.363636 443.765349 
L 305.112237 444.517636 
L 305.860837 438.053443 
L 306.609437 424.789982 
L 307.358038 406.296527 
L 309.603839 344.605156 
L 310.352439 330.044316 
L 311.10104 320.833051 
L 311.84964 316.906503 
L 312.59824 317.316713 
L 313.346841 320.561409 
L 314.844042 329.305532 
L 315.592642 332.685044 
L 316.341242 335.083339 
L 317.089843 337.06223 
L 317.838443 339.552315 
L 318.587043 343.498828 
L 319.335644 349.495941 
L 320.084244 357.520901 
L 321.581445 376.076967 
L 322.330045 383.567586 
L 323.078646 387.698115 
L 323.827246 387.3658 
L 324.575846 382.315873 
L 325.324447 373.311097 
L 326.821648 351.009834 
L 327.570248 342.748623 
L 328.318848 339.623098 
L 329.067449 343.177275 
L 329.816049 353.825298 
L 330.564649 370.733427 
L 333.559051 453.9395 
L 334.307651 465.746735 
L 335.056252 470.979094 
L 335.804852 469.97811 
L 336.553452 464.033567 
L 338.050653 444.940308 
L 338.799254 435.475356 
L 339.547854 427.657783 
L 340.296454 421.728398 
L 342.542255 408.399544 
L 343.290856 402.230558 
L 344.039456 394.33544 
L 346.285257 366.913922 
L 347.033858 360.552534 
L 347.782458 357.286965 
L 348.531058 357.209887 
L 349.279659 359.511356 
L 350.028259 362.542035 
L 350.77686 364.091564 
L 351.52546 361.824745 
L 352.27406 353.782444 
L 353.022661 338.833704 
L 353.771261 316.977023 
L 355.268462 258.376817 
L 356.765662 197.46737 
L 357.514263 173.12035 
L 358.262863 155.340389 
L 359.011464 144.612272 
L 359.760064 140.233299 
L 360.508664 140.526912 
L 362.005865 146.07925 
L 362.754465 147.10127 
L 363.503066 145.149374 
L 364.251666 139.961392 
L 365.000267 132.112011 
L 367.246068 104.726393 
L 367.994668 97.863376 
L 368.743268 92.637891 
L 370.240469 84.203731 
L 370.98907 78.927248 
L 371.73767 71.880277 
L 373.234871 52.988567 
L 373.983471 43.317375 
L 374.732071 35.902636 
L 375.480672 32.727273 
L 376.229272 35.366113 
L 376.977873 44.573819 
L 377.726473 60.02236 
L 379.223674 102.933385 
L 379.972274 125.156179 
L 380.720874 144.076347 
L 381.469475 157.396186 
L 382.218075 163.807808 
L 382.966676 163.226512 
L 383.715276 156.773731 
L 385.961077 124.887542 
L 386.709677 118.106873 
L 387.458278 115.862847 
L 388.206878 118.29964 
L 388.955479 124.620001 
L 391.94988 158.362925 
L 392.69848 163.088396 
L 393.447081 166.060038 
L 394.944282 170.257229 
L 395.692882 173.213175 
L 397.938683 185.632367 
L 398.687283 187.373841 
L 399.435884 185.335242 
L 400.184484 178.300403 
L 400.933085 165.822275 
L 401.681685 148.448731 
L 403.927486 86.098467 
L 404.676086 70.499647 
L 405.424687 61.196893 
L 406.173287 59.093338 
L 406.921887 63.854373 
L 407.670488 73.969009 
L 409.167689 100.293103 
L 409.916289 111.055536 
L 410.664889 117.326779 
L 411.41349 118.097675 
L 412.16209 113.486228 
L 412.91069 104.627893 
L 415.156492 71.765959 
L 415.905092 64.646985 
L 416.653692 60.949555 
L 417.402293 60.426007 
L 418.150893 62.251483 
L 419.648094 68.824348 
L 421.145295 75.582337 
L 421.893895 79.837001 
L 422.642495 86.1472 
L 423.391096 95.79171 
L 424.139696 109.716552 
L 424.888296 128.185549 
L 426.385497 175.361259 
L 427.882698 223.10651 
L 428.631298 241.351607 
L 429.379899 253.545879 
L 430.128499 259.196892 
L 430.877099 259.015476 
L 431.6257 254.815345 
L 432.3743 249.183673 
L 433.122901 244.984189 
L 433.871501 244.802854 
L 434.620101 250.454477 
L 435.368702 262.648957 
L 436.117302 280.893813 
L 437.614503 328.639512 
L 439.111704 375.814776 
L 439.860304 394.283743 
L 440.608904 408.208462 
L 441.357505 417.852658 
L 442.106105 424.16308 
L 442.854705 428.417542 
L 445.849107 441.748314 
L 446.597707 443.574095 
L 447.346308 443.050485 
L 448.094908 439.352101 
L 448.843508 432.233696 
L 449.592109 422.224971 
L 451.08931 399.371498 
L 451.83791 390.513366 
L 452.58651 385.901919 
L 453.335111 386.673292 
L 454.083711 392.945226 
L 454.832311 403.707323 
L 456.329512 430.031133 
L 457.078113 440.145363 
L 457.826713 444.906459 
L 458.575313 442.802681 
L 459.323914 433.499784 
L 460.072514 417.9007 
L 463.066915 338.177421 
L 463.815516 325.699003 
L 464.564116 318.664555 
L 465.312717 316.626312 
L 466.061317 318.3678 
L 466.809917 322.281693 
L 468.307118 330.786693 
L 469.055718 333.742492 
L 470.552919 337.940429 
L 471.30152 340.911787 
L 472.05012 345.637075 
L 472.79872 352.488213 
L 475.044521 379.380101 
L 475.793122 385.700167 
L 476.541722 388.136544 
L 477.290323 385.892762 
L 478.038923 379.112042 
L 480.284724 347.225873 
L 481.033324 340.773498 
L 481.781925 340.192161 
L 482.530525 346.604241 
L 483.279126 359.923988 
L 484.027726 378.844389 
L 486.273527 443.978208 
L 487.022127 459.426141 
L 487.770728 468.633562 
L 488.519328 471.272727 
L 489.267929 468.096673 
L 490.016529 460.682483 
L 492.26233 432.119033 
L 493.01093 425.072569 
L 493.759531 419.795934 
L 495.256732 411.361561 
L 496.005332 406.136339 
L 496.753932 399.27314 
L 498.251133 381.246044 
L 498.999733 371.88738 
L 499.748334 364.038445 
L 500.496934 358.850057 
L 501.245535 356.898476 
L 501.994135 357.920913 
L 503.491336 363.472784 
L 504.239936 363.766458 
L 504.988536 359.3872 
L 505.737137 348.658921 
L 506.485737 330.878934 
L 507.234338 306.531595 
L 510.228739 187.022033 
L 510.977339 165.165788 
L 511.72594 150.217271 
L 512.47454 142.174819 
L 513.22314 139.908182 
L 513.971741 141.457914 
L 514.720341 144.4884 
L 515.468942 146.789961 
L 516.217542 146.713025 
L 516.966142 143.4471 
L 517.714743 137.08556 
L 519.211943 118.893384 
L 520.709144 101.769005 
L 521.457745 95.600212 
L 522.954945 86.798346 
L 523.703546 82.271206 
L 524.452146 76.341994 
L 525.200746 68.524421 
L 527.446548 39.966331 
L 528.195148 34.021484 
L 528.943748 33.020987 
L 529.692349 38.253184 
L 530.440949 50.060703 
L 531.189549 67.657897 
L 533.435351 133.266756 
L 534.183951 150.174996 
L 534.932551 160.822806 
L 535.681152 164.376739 
L 536.429752 161.251235 
L 537.178352 152.989679 
L 538.675553 130.689146 
L 539.424154 121.683639 
L 540.172754 116.6342 
L 540.921354 116.301905 
L 541.669955 120.43211 
L 542.418555 127.923693 
L 544.664356 154.504049 
L 545.412957 160.501558 
L 546.161557 164.447157 
L 546.910157 166.937958 
L 547.658758 168.916555 
L 548.407358 171.315276 
L 549.155958 174.694478 
L 550.653159 183.43885 
L 551.40176 186.683399 
L 552.15036 187.093396 
L 552.89896 183.166695 
L 553.647561 173.954974 
L 554.396161 159.394195 
L 555.893362 119.030301 
L 557.390563 79.209389 
L 558.139163 65.945989 
L 558.887763 59.481816 
L 559.636364 60.234123 
L 560.384964 67.375818 
L 561.133564 78.998134 
L 562.630765 105.027113 
L 563.379366 114.183497 
L 564.127966 118.313854 
L 564.876566 116.855496 
L 565.625167 110.361261 
L 566.373767 100.293885 
L 567.870968 77.492688 
L 568.619568 68.523649 
L 569.368168 62.755355 
L 570.116769 60.39496 
L 570.865369 60.931951 
L 571.61397 63.399334 
L 574.608371 77.120758 
L 575.356971 82.039727 
L 576.105572 89.540296 
L 576.854172 100.814276 
L 577.602773 116.572492 
L 578.351373 136.737144 
L 581.345774 231.051614 
L 582.094375 247.008196 
L 582.842975 256.57869 
L 583.591576 259.744962 
L 584.340176 257.685911 
L 585.837377 247.175285 
L 586.585977 244.306299 
L 587.334577 246.297449 
L 588.083178 254.54865 
L 588.831778 269.287667 
L 589.580379 289.567883 
L 592.57478 383.729184 
L 593.32338 400.402605 
L 594.071981 412.538754 
L 594.820581 420.708134 
L 595.569182 426.038303 
L 597.066382 433.147185 
L 598.563583 439.970739 
L 599.312183 442.693642 
L 600.060784 443.702606 
L 600.809384 441.981722 
L 601.557985 436.904211 
L 602.306585 428.519067 
L 604.552386 395.425553 
L 605.300986 388.075568 
L 606.049587 385.532751 
L 606.798187 388.553105 
L 607.546788 396.803046 
L 609.792589 434.58073 
L 610.541189 442.800894 
L 611.289789 444.935536 
L 612.03839 439.921661 
L 612.78699 427.926441 
L 613.535591 410.307784 
L 615.781392 348.093534 
L 616.529992 332.544766 
L 617.278592 322.236012 
L 618.027193 317.304119 
L 618.775793 316.955032 
L 619.524393 319.765481 
L 621.021594 328.504767 
L 621.770195 332.095407 
L 622.518795 334.662677 
L 624.015996 338.96513 
L 624.764596 342.557115 
L 625.513196 348.123474 
L 626.261797 355.778971 
L 628.507598 382.291862 
L 629.256198 387.204354 
L 630.004799 387.815702 
L 630.753399 383.681711 
L 631.501999 375.358346 
L 633.747801 344.055434 
L 634.496401 339.748788 
L 635.245001 341.894029 
L 635.993602 351.149899 
L 636.742202 366.930785 
L 638.239403 410.248269 
L 638.988003 432.275017 
L 639.736604 450.837925 
L 640.485204 463.902234 
L 641.233804 470.457678 
L 641.982405 470.625825 
L 642.731005 465.532414 
L 643.479605 456.970169 
L 644.976806 437.258211 
L 645.725407 429.066596 
L 646.474007 422.77715 
L 647.971208 413.95177 
L 648.719808 409.439788 
L 649.468408 403.603076 
L 650.217009 396.043135 
L 652.46281 368.493928 
L 653.21141 361.594251 
L 653.960011 357.674621 
L 654.708611 356.995718 
L 655.457211 358.929288 
L 656.205812 361.978364 
L 656.954412 364.014881 
L 657.703013 362.687248 
L 658.451613 355.922122 
L 659.200213 342.394064 
L 659.948814 321.861508 
L 660.697414 295.289006 
L 663.691816 177.502166 
L 664.440416 158.329655 
L 665.189016 146.211974 
L 665.937617 140.670591 
L 666.686217 140.197947 
L 667.434817 142.624233 
L 668.183418 145.605347 
L 668.932018 147.110783 
L 669.680619 145.803759 
L 670.429219 141.241034 
L 671.177819 133.844357 
L 673.42362 106.309141 
L 674.172221 99.09523 
L 674.920821 93.574517 
L 677.166622 80.109334 
L 677.915223 73.446029 
L 678.663823 64.895054 
L 680.161024 45.136414 
L 680.909624 37.10716 
L 681.658224 32.938122 
L 682.406825 34.322447 
L 683.155425 42.206134 
L 683.904026 56.486762 
L 684.652626 75.9339 
L 686.898427 140.678469 
L 687.647027 155.259818 
L 688.395628 163.100224 
L 689.144228 163.864196 
L 689.892829 158.445435 
L 690.641429 148.75337 
L 692.13863 126.70252 
L 692.88723 119.123573 
L 693.63583 115.927762 
L 694.384431 117.464214 
L 695.133031 123.108646 
L 696.630232 140.97059 
L 697.378832 149.90112 
L 698.127433 157.16358 
L 698.876033 162.304139 
L 699.624633 165.568917 
L 701.121834 169.782047 
L 701.870435 172.537277 
L 702.619035 176.331187 
L 704.116236 184.970287 
L 704.864836 187.279569 
L 705.613436 186.112991 
L 706.362037 180.142331 
L 707.110637 168.741961 
L 707.859238 152.253627 
L 710.853639 73.164823 
L 711.602239 62.493358 
L 712.35084 58.936033 
L 713.09944 62.410046 
L 713.848041 71.623782 
L 716.093842 109.210486 
L 716.842442 116.496063 
L 717.591042 118.394059 
L 718.339643 114.797221 
L 719.088243 106.657374 
L 721.334044 73.56849 
L 722.082645 65.802208 
L 722.831245 61.417285 
L 723.579845 60.309678 
L 724.328446 61.74895 
L 725.077046 64.6852 
L 728.071448 78.863592 
L 728.820048 84.656516 
L 729.568648 93.542994 
L 730.317249 106.564793 
L 731.065849 124.143946 
L 732.56305 170.309139 
L 734.060251 218.852431 
L 734.808851 238.150019 
L 735.557451 251.631405 
L 736.306052 258.573328 
L 737.054652 259.445115 
L 737.803252 255.860487 
L 738.551853 250.286943 
L 739.300453 245.576748 
L 740.049054 244.416302 
L 740.797654 248.806438 
L 741.546254 259.694691 
L 742.294855 276.82276 
L 743.792055 323.57829 
L 745.289256 371.614164 
L 746.037857 390.947075 
L 746.786457 405.786309 
L 747.535057 416.228356 
L 748.283658 423.108003 
L 749.032258 427.669174 
L 752.02666 441.195283 
L 752.77526 443.364748 
L 753.52386 443.38946 
L 754.272461 440.368537 
L 755.021061 433.916487 
L 755.769661 424.404793 
L 757.266862 401.498729 
L 758.015463 391.996172 
L 758.764063 386.417143 
L 759.512663 386.066625 
L 760.261264 391.282587 
L 761.009864 401.280144 
L 763.255665 438.485172 
L 764.004266 444.470812 
L 764.752866 443.806325 
L 765.501466 435.909359 
L 766.250067 421.441902 
L 767.747267 380.60502 
L 769.244468 341.296204 
L 769.993069 327.762166 
L 770.741669 319.644117 
L 771.490269 316.684186 
L 772.23887 317.792093 
L 772.98747 321.404363 
L 774.484671 330.066864 
L 775.233271 333.232883 
L 777.479072 340.199166 
L 778.227673 344.525072 
L 778.976273 350.95238 
L 780.473474 368.73891 
L 781.222074 377.7712 
L 781.970674 384.708127 
L 782.719275 388.010581 
L 783.467875 386.724076 
L 784.216476 380.789442 
L 784.965076 371.173328 
L 786.462277 349.051034 
L 787.210877 341.649128 
L 787.959477 339.768605 
L 788.708078 344.747962 
L 789.456678 356.754299 
L 790.205279 374.711657 
L 792.45108 440.250097 
L 793.19968 456.805169 
L 793.94828 467.323818 
L 794.696881 471.248117 
L 795.445481 469.130369 
L 796.194082 462.411387 
L 798.439883 433.760279 
L 799.188483 426.326738 
L 799.937083 420.737089 
L 802.182885 407.299613 
L 802.931485 400.787165 
L 804.428686 383.178589 
L 805.925886 365.426537 
L 806.674487 359.636456 
L 807.423087 357.028389 
L 808.171688 357.521845 
L 809.668888 363.04605 
L 810.417489 364.015226 
L 811.166089 360.728905 
L 811.914689 351.362596 
L 812.66329 334.99428 
L 813.41189 311.862865 
L 814.909091 251.9991 
L 814.909091 251.9991 
" clip-path="url(#pa65c118586)" style="fill: none; stroke: #1f77b4; stroke-width: 3; stroke-linecap: square"/>
   </g>
   <g id="patch_3">
    <path d="M 10.8 493.2 
L 10.8 10.8 
" style="fill: none; stroke: #000000; stroke-width: 0.8; stroke-linejoin: miter; stroke-linecap: square"/>
   </g>
   <g id="patch_4">
    <path d="M 853.2 493.2 
L 853.2 10.8 
" style="fill: none; stroke: #000000; stroke-width: 0.8; stroke-linejoin: miter; stroke-linecap: square"/>
   </g>
   <g id="patch_5">
    <path d="M 10.8 493.2 
L 853.2 493.2 
" style="fill: none; stroke: #000000; stroke-linejoin: miter; stroke-linecap: square"/>
   </g>
   <g id="patch_6">
    <path d="M 10.8 10.8 
L 853.2 10.8 
" style="fill: none; stroke: #000000; stroke-width: 0.8; stroke-linejoin: miter; stroke-linecap: square"/>
   </g>
  </g>
 </g>
 <defs>
  <clipPath id="pa65c118586">
   <rect x="10.8" y="10.8" width="842.4" height="482.4"/>
  </clipPath>
 </defs>
</svg>
