<?xml version="1.0" encoding="utf-8" standalone="no"?>
<!DOCTYPE svg PUBLIC "-//W3C//DTD SVG 1.1//EN"
  "http://www.w3.org/Graphics/SVG/1.1/DTD/svg11.dtd">
<svg xmlns:xlink="http://www.w3.org/1999/xlink" width="864pt" height="504pt" viewBox="0 0 864 504" xmlns="http://www.w3.org/2000/svg" version="1.1">
 <metadata>
  <rdf:RDF xmlns:dc="http://purl.org/dc/elements/1.1/" xmlns:cc="http://creativecommons.org/ns#" xmlns:rdf="http://www.w3.org/1999/02/22-rdf-syntax-ns#">
   <cc:Work>
    <dc:type rdf:resource="http://purl.org/dc/dcmitype/StillImage"/>
    <dc:date>2025-06-14T17:34:48.575298</dc:date>
    <dc:format>image/svg+xml</dc:format>
    <dc:creator>
     <cc:Agent>
      <dc:title>Matplotlib v3.9.2, https://matplotlib.org/</dc:title>
     </cc:Agent>
    </dc:creator>
   </cc:Work>
  </rdf:RDF>
 </metadata>
 <defs>
  <style type="text/css">*{stroke-linejoin: round; stroke-linecap: butt}</style>
 </defs>
 <g id="figure_1">
  <g id="patch_1">
   <path d="M 0 504 
L 864 504 
L 864 0 
L 0 0 
z
" style="fill: #ffffff"/>
  </g>
  <g id="axes_1">
   <g id="patch_2">
    <path d="M 10.8 493.2 
L 853.2 493.2 
L 853.2 10.8 
L 10.8 10.8 
z
" style="fill: #ffffff"/>
   </g>
   <g id="matplotlib.axis_1"/>
   <g id="matplotlib.axis_2"/>
   <g id="line2d_1">
    <path d="M 49.090909 251.999919 
L 51.087827 192.136866 
L 52.086287 169.005953 
L 53.084746 152.636836 
L 54.083205 143.270618 
L 55.081664 139.984926 
L 56.080123 140.953371 
L 58.077042 146.478074 
L 59.075501 146.97084 
L 60.07396 144.363412 
L 61.072419 138.573635 
L 62.070878 130.317876 
L 64.067797 111.427385 
L 65.066256 103.212784 
L 66.064715 96.699758 
L 67.063174 91.743245 
L 69.060092 83.263175 
L 70.058552 77.672714 
L 71.057011 70.23905 
L 73.053929 50.970801 
L 74.052388 41.588552 
L 75.050847 34.869387 
L 76.049307 32.751639 
L 77.047766 36.675959 
L 78.046225 47.194506 
L 79.044684 63.750959 
L 81.041602 107.508303 
L 82.040062 129.288627 
L 83.038521 147.246198 
L 84.03698 159.251866 
L 85.035439 164.231445 
L 86.033898 162.350669 
L 87.032357 154.948539 
L 90.027735 123.21068 
L 91.026194 117.275965 
L 92.024653 115.989135 
L 93.023112 119.292208 
L 94.021572 126.229298 
L 97.016949 153.047863 
L 98.015408 159.475182 
L 99.013867 163.800803 
L 100.012327 166.513087 
L 101.010786 168.513741 
L 102.009245 170.766869 
L 103.007704 173.932836 
L 106.003082 186.207984 
L 107.001541 187.315636 
L 108 184.355461 
L 108.998459 176.238082 
L 109.996918 162.702994 
L 110.995378 144.507802 
L 113.990755 82.556829 
L 114.989214 68.090012 
L 115.987673 60.192944 
L 116.986133 59.528945 
L 117.984592 65.515458 
L 118.983051 76.434565 
L 120.979969 102.720353 
L 121.978428 112.716875 
L 122.976888 117.933335 
L 123.975347 117.582898 
L 124.973806 112.003361 
L 125.972265 102.500987 
L 127.969183 79.594842 
L 128.967643 70.082376 
L 129.966102 63.631503 
L 130.964561 60.610723 
L 131.96302 60.635962 
L 132.961479 62.804514 
L 135.956857 72.835026 
L 136.955316 76.330745 
L 137.953775 80.891977 
L 138.952234 87.771806 
L 139.950693 98.213833 
L 140.949153 113.053017 
L 141.947612 132.385491 
L 143.94453 180.421928 
L 145.941448 227.177646 
L 146.939908 244.306197 
L 147.938367 255.193811 
L 148.936826 259.583708 
L 149.935285 258.422859 
L 150.933744 253.712844 
L 151.932203 248.139195 
L 152.930663 244.554471 
L 153.929122 245.4267 
L 154.927581 252.368777 
L 155.92604 265.850347 
L 156.924499 285.147386 
L 158.921418 333.690917 
L 159.919877 358.157641 
L 160.918336 379.85578 
L 161.916795 397.436009 
L 162.915254 410.457382 
L 163.913713 419.342946 
L 164.912173 425.136388 
L 165.910632 429.133705 
L 169.904468 442.250827 
L 170.902928 443.68953 
L 171.901387 442.582735 
L 172.899846 438.197204 
L 173.898305 430.43147 
L 174.896764 419.979848 
L 176.893683 397.341489 
L 177.892142 389.202403 
L 178.890601 385.605829 
L 179.88906 387.503805 
L 180.887519 394.789545 
L 181.885978 406.236109 
L 183.882897 432.376563 
L 184.881356 441.589569 
L 185.879815 445.063784 
L 186.878274 441.506317 
L 187.876733 430.83404 
L 188.875193 414.182204 
L 191.87057 351.746028 
L 192.869029 335.25742 
L 193.867488 323.857446 
L 194.865948 317.88706 
L 195.864407 316.720538 
L 196.862866 319.029947 
L 199.858243 331.463069 
L 200.856703 334.217587 
L 202.853621 338.430383 
L 203.85208 341.69583 
L 204.850539 346.836532 
L 205.848998 354.099114 
L 208.844376 380.891445 
L 209.842835 386.535684 
L 210.841294 388.072492 
L 211.839753 384.876518 
L 212.838213 377.296891 
L 215.83359 345.554605 
L 216.832049 340.13555 
L 217.830508 340.899532 
L 218.828968 348.740467 
L 219.827427 363.321652 
L 220.825886 383.111613 
L 222.822804 428.065673 
L 223.821263 447.513055 
L 224.819723 461.794353 
L 225.818182 469.677472 
L 226.816641 471.061736 
L 227.8151 466.892658 
L 228.813559 458.86318 
L 230.810478 439.104297 
L 231.808937 430.553849 
L 232.807396 423.890442 
L 233.805855 418.898547 
L 235.802773 410.424904 
L 236.801233 404.904587 
L 237.799692 397.690809 
L 239.79661 379.318992 
L 240.795069 370.155044 
L 241.793529 362.758996 
L 242.791988 358.196139 
L 243.790447 356.889227 
L 244.788906 358.394551 
L 245.787365 361.375726 
L 246.785824 363.802032 
L 247.784284 363.329206 
L 248.782743 357.788005 
L 249.781202 345.669329 
L 250.779661 326.497712 
L 251.77812 301.000937 
L 255.771957 182.138989 
L 256.770416 161.60553 
L 257.768875 148.077167 
L 258.767334 141.31262 
L 259.765794 139.985373 
L 260.764253 142.021098 
L 261.762712 145.070458 
L 262.761171 147.003876 
L 263.75963 146.324607 
L 264.758089 142.404592 
L 265.756549 135.50597 
L 269.750385 100.396457 
L 270.748844 94.56006 
L 273.744222 81.222139 
L 274.742681 74.933038 
L 275.74114 66.7412 
L 278.736518 38.466794 
L 279.734977 33.373383 
L 280.733436 33.54218 
L 281.731895 40.097381 
L 282.730354 53.162339 
L 283.728814 71.72608 
L 286.724191 137.069763 
L 287.72265 152.849766 
L 288.721109 162.105788 
L 289.719569 164.251314 
L 290.718028 159.943389 
L 291.716487 150.917516 
L 293.713405 128.641339 
L 294.711864 120.318086 
L 295.710324 116.183993 
L 296.708783 116.795697 
L 297.707242 121.708361 
L 298.705701 129.687248 
L 300.702619 148.220877 
L 301.701079 155.87677 
L 302.699538 161.443088 
L 303.697997 165.034789 
L 304.696456 167.341985 
L 305.694915 169.337273 
L 306.693374 171.904395 
L 307.691834 175.495207 
L 309.688752 184.234194 
L 310.687211 187.044968 
L 311.68567 186.6958 
L 312.684129 181.763399 
L 313.682589 171.45498 
L 314.681048 155.906395 
L 316.677966 114.668354 
L 317.676425 93.691851 
L 318.674884 76.073397 
L 319.673344 64.078095 
L 320.671803 59.064058 
L 321.670262 61.199106 
L 322.668721 69.419168 
L 325.664099 107.196335 
L 326.662558 115.446753 
L 327.661017 118.466802 
L 328.659476 115.924036 
L 329.657935 108.574508 
L 331.654854 86.315783 
L 332.653313 75.480141 
L 333.651772 67.095525 
L 334.650231 62.017973 
L 335.64869 60.297434 
L 336.647149 61.306439 
L 337.645609 64.029221 
L 341.639445 77.961636 
L 342.637904 83.291561 
L 343.636364 91.461368 
L 344.634823 103.597354 
L 345.633282 120.271526 
L 346.631741 141.225907 
L 349.627119 214.433769 
L 350.625578 234.713109 
L 351.624037 249.451574 
L 352.622496 257.702931 
L 353.620955 259.694001 
L 354.619414 256.824263 
L 356.616333 246.313914 
L 357.614792 244.254909 
L 358.613251 247.421579 
L 359.61171 256.991661 
L 360.610169 272.94934 
L 361.608629 294.134839 
L 364.604006 367.264227 
L 365.602465 387.427782 
L 366.600924 403.185734 
L 367.599384 414.459846 
L 368.597843 421.960141 
L 369.596302 426.879201 
L 371.59322 433.8162 
L 373.590139 440.599813 
L 374.588598 443.067237 
L 375.587057 443.604309 
L 376.585516 441.244421 
L 377.583975 435.476006 
L 378.582435 426.50717 
L 381.577812 393.638272 
L 382.576271 387.143855 
L 383.57473 385.686309 
L 384.57319 389.815955 
L 385.571649 398.972969 
L 388.567026 436.623471 
L 389.565485 443.765349 
L 390.563945 444.517636 
L 391.562404 438.053443 
L 392.560863 424.789982 
L 393.559322 406.296527 
L 396.5547 344.605156 
L 397.553159 330.044316 
L 398.551618 320.833051 
L 399.550077 316.906503 
L 400.548536 317.316713 
L 401.546995 320.561409 
L 403.543914 329.305532 
L 404.542373 332.685044 
L 405.540832 335.083339 
L 406.539291 337.06223 
L 407.53775 339.552315 
L 408.53621 343.498828 
L 409.534669 349.495941 
L 410.533128 357.520901 
L 412.530046 376.076967 
L 413.528505 383.567586 
L 414.526965 387.698115 
L 415.525424 387.3658 
L 416.523883 382.315873 
L 417.522342 373.311097 
L 419.51926 351.009834 
L 420.51772 342.748623 
L 421.516179 339.623098 
L 422.514638 343.177275 
L 423.513097 353.825298 
L 424.511556 370.733427 
L 428.505393 453.9395 
L 429.503852 465.746735 
L 430.502311 470.979094 
L 431.50077 469.97811 
L 432.49923 464.033567 
L 433.497689 455.020669 
L 435.494607 435.475356 
L 436.493066 427.657783 
L 437.491525 421.728398 
L 440.486903 408.399544 
L 441.485362 402.230558 
L 442.483821 394.33544 
L 445.479199 366.913922 
L 446.477658 360.552534 
L 447.476117 357.286965 
L 448.474576 357.209887 
L 449.473035 359.511356 
L 450.471495 362.542035 
L 451.469954 364.091564 
L 452.468413 361.824745 
L 453.466872 353.782444 
L 454.465331 338.833704 
L 455.46379 316.977023 
L 456.46225 289.414272 
L 459.457627 197.46737 
L 460.456086 173.12035 
L 461.454545 155.340389 
L 462.453005 144.612272 
L 463.451464 140.233299 
L 464.449923 140.526912 
L 466.446841 146.07925 
L 467.4453 147.10127 
L 468.44376 145.149374 
L 469.442219 139.961392 
L 470.440678 132.112011 
L 473.436055 104.726393 
L 474.434515 97.863376 
L 475.432974 92.637891 
L 477.429892 84.203731 
L 478.428351 78.927248 
L 479.42681 71.880277 
L 480.42527 62.994063 
L 482.422188 43.317375 
L 483.420647 35.902636 
L 484.419106 32.727273 
L 485.417565 35.366113 
L 486.416025 44.573819 
L 487.414484 60.02236 
L 488.412943 80.263633 
L 490.409861 125.156179 
L 491.40832 144.076347 
L 492.40678 157.396186 
L 493.405239 163.807808 
L 494.403698 163.226512 
L 495.402157 156.773731 
L 496.400616 146.518857 
L 497.399076 135.038443 
L 498.397535 124.887542 
L 499.395994 118.106873 
L 500.394453 115.862847 
L 501.392912 118.29964 
L 502.391371 124.620001 
L 505.386749 151.511818 
L 506.385208 158.362925 
L 507.383667 163.088396 
L 508.382126 166.060038 
L 510.379045 170.257229 
L 511.377504 173.213175 
L 512.375963 177.196827 
L 513.374422 181.718317 
L 514.372881 185.632367 
L 515.371341 187.373841 
L 516.3698 185.335242 
L 517.368259 178.300403 
L 518.366718 165.822275 
L 519.365177 148.448731 
L 522.360555 86.098467 
L 523.359014 70.499647 
L 524.357473 61.196893 
L 525.355932 59.093338 
L 526.354391 63.854373 
L 527.352851 73.969009 
L 529.349769 100.293103 
L 530.348228 111.055536 
L 531.346687 117.326779 
L 532.345146 118.097675 
L 533.343606 113.486228 
L 534.342065 104.627893 
L 537.337442 71.765959 
L 538.335901 64.646985 
L 539.334361 60.949555 
L 540.33282 60.426007 
L 541.331279 62.251483 
L 543.328197 68.824348 
L 545.325116 75.582337 
L 546.323575 79.837001 
L 547.322034 86.1472 
L 548.320493 95.79171 
L 549.318952 109.716552 
L 550.317411 128.185549 
L 552.31433 175.361259 
L 554.311248 223.10651 
L 555.309707 241.351607 
L 556.308166 253.545879 
L 557.306626 259.196892 
L 558.305085 259.015476 
L 559.303544 254.815345 
L 560.302003 249.183673 
L 561.300462 244.984189 
L 562.298921 244.802854 
L 563.297381 250.454477 
L 564.29584 262.648957 
L 565.294299 280.893813 
L 567.291217 328.639512 
L 569.288136 375.814776 
L 570.286595 394.283743 
L 571.285054 408.208462 
L 572.283513 417.852658 
L 573.281972 424.16308 
L 574.280431 428.417542 
L 578.274268 441.748314 
L 579.272727 443.574095 
L 580.271186 443.050485 
L 581.269646 439.352101 
L 582.268105 432.233696 
L 583.266564 422.224971 
L 585.263482 399.371498 
L 586.261941 390.513366 
L 587.260401 385.901919 
L 588.25886 386.673292 
L 589.257319 392.945226 
L 590.255778 403.707323 
L 592.252696 430.031133 
L 593.251156 440.145363 
L 594.249615 444.906459 
L 595.248074 442.802681 
L 596.246533 433.499784 
L 597.244992 417.9007 
L 599.241911 376.260921 
L 600.24037 355.550588 
L 601.238829 338.177421 
L 602.237288 325.699003 
L 603.235747 318.664555 
L 604.234206 316.626312 
L 605.232666 318.3678 
L 606.231125 322.281693 
L 607.229584 326.803199 
L 608.228043 330.786693 
L 609.226502 333.742492 
L 611.223421 337.940429 
L 612.22188 340.911787 
L 613.220339 345.637075 
L 614.218798 352.488213 
L 617.214176 379.380101 
L 618.212635 385.700167 
L 619.211094 388.136544 
L 620.209553 385.892762 
L 621.208012 379.112042 
L 622.206471 368.96114 
L 624.20339 347.225873 
L 625.201849 340.773498 
L 626.200308 340.192161 
L 627.198767 346.604241 
L 628.197227 359.923988 
L 629.195686 378.844389 
L 632.191063 443.978208 
L 633.189522 459.426141 
L 634.187982 468.633562 
L 635.186441 471.272727 
L 636.1849 468.096673 
L 637.183359 460.682483 
L 640.178737 432.119033 
L 641.177196 425.072569 
L 642.175655 419.795934 
L 644.172573 411.361561 
L 645.171032 406.136339 
L 646.169492 399.27314 
L 647.167951 390.760206 
L 649.164869 371.88738 
L 650.163328 364.038445 
L 651.161787 358.850057 
L 652.160247 356.898476 
L 653.158706 357.920913 
L 655.155624 363.472784 
L 656.154083 363.766458 
L 657.152542 359.3872 
L 658.151002 348.658921 
L 659.149461 330.878934 
L 660.14792 306.531595 
L 662.144838 245.622625 
L 663.143297 214.584824 
L 664.141757 187.022033 
L 665.140216 165.165788 
L 666.138675 150.217271 
L 667.137134 142.174819 
L 668.135593 139.908182 
L 669.134052 141.457914 
L 670.132512 144.4884 
L 671.130971 146.789961 
L 672.12943 146.713025 
L 673.127889 143.4471 
L 674.126348 137.08556 
L 675.124807 128.47374 
L 677.121726 109.664317 
L 678.120185 101.769005 
L 679.118644 95.600212 
L 680.117103 90.882579 
L 682.114022 82.271206 
L 683.112481 76.341994 
L 684.11094 68.524421 
L 687.106317 39.966331 
L 688.104777 34.021484 
L 689.103236 33.020987 
L 690.101695 38.253184 
L 691.100154 50.060703 
L 692.098613 67.657897 
L 695.093991 133.266756 
L 696.09245 150.174996 
L 697.090909 160.822806 
L 698.089368 164.376739 
L 699.087827 161.251235 
L 700.086287 152.989679 
L 702.083205 130.689146 
L 703.081664 121.683639 
L 704.080123 116.6342 
L 705.078582 116.301905 
L 706.077042 120.43211 
L 707.075501 127.923693 
L 709.072419 146.478744 
L 710.070878 154.504049 
L 711.069337 160.501558 
L 712.067797 164.447157 
L 713.066256 166.937958 
L 714.064715 168.916555 
L 715.063174 171.315276 
L 716.061633 174.694478 
L 718.058552 183.43885 
L 719.057011 186.683399 
L 720.05547 187.093396 
L 721.053929 183.166695 
L 722.052388 173.954974 
L 723.050847 159.394195 
L 724.049307 140.448523 
L 726.046225 97.701909 
L 727.044684 79.209389 
L 728.043143 65.945989 
L 729.041602 59.481816 
L 730.040062 60.234123 
L 731.038521 67.375818 
L 732.03698 78.998134 
L 734.033898 105.027113 
L 735.032357 114.183497 
L 736.030817 118.313854 
L 737.029276 116.855496 
L 738.027735 110.361261 
L 739.026194 100.293885 
L 741.023112 77.492688 
L 742.021572 68.523649 
L 743.020031 62.755355 
L 744.01849 60.39496 
L 745.016949 60.931951 
L 746.015408 63.399334 
L 750.009245 77.120758 
L 751.007704 82.039727 
L 752.006163 89.540296 
L 753.004622 100.814276 
L 754.003082 116.572492 
L 755.001541 136.737144 
L 758.995378 231.051614 
L 759.993837 247.008196 
L 760.992296 256.57869 
L 761.990755 259.744962 
L 762.989214 257.685911 
L 764.986133 247.175285 
L 765.984592 244.306299 
L 766.983051 246.297449 
L 767.98151 254.54865 
L 768.979969 269.287667 
L 769.978428 289.567883 
L 773.972265 383.729184 
L 774.970724 400.402605 
L 775.969183 412.538754 
L 776.967643 420.708134 
L 777.966102 426.038303 
L 778.964561 429.82534 
L 781.959938 439.970739 
L 782.958398 442.693642 
L 783.956857 443.702606 
L 784.955316 441.981722 
L 785.953775 436.904211 
L 786.952234 428.519067 
L 789.947612 395.425553 
L 790.946071 388.075568 
L 791.94453 385.532751 
L 792.942989 388.553105 
L 793.941448 396.803046 
L 794.939908 408.846106 
L 796.936826 434.58073 
L 797.935285 442.800894 
L 798.933744 444.935536 
L 799.932203 439.921661 
L 800.930663 427.926441 
L 801.929122 410.307784 
L 804.924499 348.093534 
L 805.922958 332.544766 
L 806.921418 322.236012 
L 807.919877 317.304119 
L 808.918336 316.955032 
L 809.916795 319.765481 
L 811.913713 328.504767 
L 812.912173 332.095407 
L 813.910632 334.662677 
L 814.909091 336.657807 
L 814.909091 336.657807 
" clip-path="url(#p967116bf2b)" style="fill: none; stroke: #1f77b4; stroke-width: 3; stroke-linecap: square"/>
   </g>
   <g id="patch_3">
    <path d="M 10.8 493.2 
L 10.8 10.8 
" style="fill: none; stroke: #000000; stroke-width: 0.8; stroke-linejoin: miter; stroke-linecap: square"/>
   </g>
   <g id="patch_4">
    <path d="M 853.2 493.2 
L 853.2 10.8 
" style="fill: none; stroke: #000000; stroke-width: 0.8; stroke-linejoin: miter; stroke-linecap: square"/>
   </g>
   <g id="patch_5">
    <path d="M 10.8 493.2 
L 853.2 493.2 
" style="fill: none; stroke: #000000; stroke-linejoin: miter; stroke-linecap: square"/>
   </g>
   <g id="patch_6">
    <path d="M 10.8 10.8 
L 853.2 10.8 
" style="fill: none; stroke: #000000; stroke-width: 0.8; stroke-linejoin: miter; stroke-linecap: square"/>
   </g>
  </g>
 </g>
 <defs>
  <clipPath id="p967116bf2b">
   <rect x="10.8" y="10.8" width="842.4" height="482.4"/>
  </clipPath>
 </defs>
</svg>
