<?xml version="1.0" encoding="utf-8" standalone="no"?>
<!DOCTYPE svg PUBLIC "-//W3C//DTD SVG 1.1//EN"
  "http://www.w3.org/Graphics/SVG/1.1/DTD/svg11.dtd">
<svg xmlns:xlink="http://www.w3.org/1999/xlink" width="983.52pt" height="523.201352pt" viewBox="0 0 983.52 523.201352" xmlns="http://www.w3.org/2000/svg" version="1.1">
 <metadata>
  <rdf:RDF xmlns:dc="http://purl.org/dc/elements/1.1/" xmlns:cc="http://creativecommons.org/ns#" xmlns:rdf="http://www.w3.org/1999/02/22-rdf-syntax-ns#">
   <cc:Work>
    <dc:type rdf:resource="http://purl.org/dc/dcmitype/StillImage"/>
    <dc:date>2025-06-14T17:40:12.434473</dc:date>
    <dc:format>image/svg+xml</dc:format>
    <dc:creator>
     <cc:Agent>
      <dc:title>Matplotlib v3.9.2, https://matplotlib.org/</dc:title>
     </cc:Agent>
    </dc:creator>
   </cc:Work>
  </rdf:RDF>
 </metadata>
 <defs>
  <style type="text/css">*{stroke-linejoin: round; stroke-linecap: butt}</style>
 </defs>
 <g id="figure_1">
  <g id="patch_1">
   <path d="M 0 523.201352 
L 983.52 523.201352 
L 983.52 0 
L 0 0 
z
" style="fill: #ffffff"/>
  </g>
  <g id="axes_1">
   <g id="patch_2">
    <path d="M 7.2 391.3664 
L 976.32 391.3664 
L 976.32 7.2 
L 7.2 7.2 
z
" style="fill: #ffffff"/>
   </g>
   <g id="matplotlib.axis_1"/>
   <g id="matplotlib.axis_2"/>
   <g id="line2d_1">
    <path d="M 51.250909 24.662109 
L 932.269091 24.662109 
L 932.269091 24.662109 
" clip-path="url(#p26c49b969f)" style="fill: none; stroke: #0000ff; stroke-width: 3; stroke-linecap: square"/>
   </g>
   <g id="line2d_2">
    <path d="M 51.250909 345.964907 
L 56.994183 345.830162 
L 62.737456 345.426167 
L 68.48073 344.753587 
L 74.224004 343.813558 
L 79.967277 342.60765 
L 85.710551 341.137894 
L 91.453825 339.406745 
L 97.197098 337.417108 
L 102.940372 335.172345 
L 108.683646 332.676181 
L 114.42692 329.932832 
L 120.170193 326.946899 
L 125.913467 323.723377 
L 131.656741 320.267679 
L 137.400014 316.585602 
L 144.291943 311.877013 
L 151.183871 306.862735 
L 158.075799 301.554872 
L 164.967728 295.966236 
L 171.859656 290.110317 
L 179.900239 282.959542 
L 187.940823 275.487767 
L 195.981406 267.719555 
L 205.170644 258.511416 
L 214.359881 248.989022 
L 224.697774 237.951638 
L 236.184321 225.355111 
L 249.968178 209.892325 
L 270.643963 186.300515 
L 297.063022 156.193488 
L 310.846879 140.828195 
L 322.333427 128.345712 
L 332.671319 117.435828 
L 341.860557 108.045983 
L 351.049795 98.987868 
L 359.090378 91.364716 
L 367.130961 84.050438 
L 375.171544 77.069036 
L 382.063473 71.367367 
L 388.955401 65.940891 
L 395.84733 60.802765 
L 402.739258 55.965396 
L 409.631186 51.44046 
L 415.37446 47.916214 
L 421.117734 44.622467 
L 426.861007 41.564697 
L 432.604281 38.748064 
L 438.347555 36.177273 
L 444.090828 33.856696 
L 449.834102 31.790163 
L 455.577376 29.98113 
L 461.32065 28.432677 
L 467.063923 27.147386 
L 472.807197 26.127421 
L 478.550471 25.374448 
L 484.293744 24.889799 
L 490.037018 24.674224 
L 495.780292 24.728139 
L 501.523565 25.051418 
L 507.266839 25.643501 
L 513.010113 26.50345 
L 518.753386 27.629786 
L 524.49666 29.020617 
L 530.239934 30.673652 
L 535.983207 32.58606 
L 541.726481 34.754676 
L 547.469755 37.175838 
L 553.213028 39.845465 
L 558.956302 42.759145 
L 564.699576 45.911964 
L 570.442849 49.298572 
L 576.186123 52.91337 
L 583.078051 57.543741 
L 589.96998 62.482695 
L 596.861908 67.718367 
L 603.753837 73.238017 
L 610.645765 79.028447 
L 618.686348 86.107291 
L 626.726931 93.51235 
L 634.767515 101.219122 
L 643.956752 110.363937 
L 653.14599 119.83047 
L 663.483883 130.814335 
L 674.97043 143.363286 
L 688.754287 158.785761 
L 707.132763 179.721516 
L 738.146441 215.080462 
L 751.930297 230.430725 
L 763.416845 242.896087 
L 773.754737 253.787028 
L 782.943975 263.157306 
L 792.133213 272.193375 
L 800.173796 279.795233 
L 808.21438 287.08655 
L 816.254963 294.043295 
L 823.146891 299.722555 
L 830.038819 305.125477 
L 836.930748 310.238966 
L 843.822676 315.050794 
L 850.714605 319.54921 
L 856.457878 323.050652 
L 862.201152 326.321011 
L 867.944426 329.354905 
L 873.687699 332.147141 
L 879.430973 334.693098 
L 885.174247 336.988466 
L 890.91752 339.029416 
L 896.660794 340.81247 
L 902.404068 342.334736 
L 908.147341 343.59358 
L 913.890615 344.58693 
L 919.633889 345.313113 
L 925.377162 345.770898 
L 931.120436 345.959516 
L 932.269091 345.964907 
L 932.269091 345.964907 
" clip-path="url(#p26c49b969f)" style="fill: none; stroke: #ff0000; stroke-width: 3; stroke-linecap: square"/>
   </g>
   <g id="line2d_3">
    <path d="M 51.250909 373.904286 
L 55.845528 373.810549 
L 60.440147 373.529433 
L 65.034766 373.06124 
L 69.629385 372.40649 
L 74.224004 371.565859 
L 78.818623 370.540263 
L 83.413242 369.330806 
L 89.156515 367.562417 
L 94.899789 365.511757 
L 100.643063 363.18225 
L 106.386336 360.577809 
L 112.12961 357.702807 
L 117.872884 354.562072 
L 123.616157 351.160861 
L 129.359431 347.504877 
L 135.102705 343.600272 
L 140.845978 339.453582 
L 146.589252 335.071749 
L 153.481181 329.513568 
L 160.373109 323.64083 
L 167.265037 317.467731 
L 174.156966 311.009165 
L 182.197549 303.134227 
L 190.238132 294.917899 
L 198.278715 286.38718 
L 207.467953 276.288857 
L 216.657191 265.859906 
L 226.995084 253.787965 
L 238.481631 240.030307 
L 252.265488 223.168561 
L 274.089928 196.064786 
L 297.063022 167.631006 
L 310.846879 150.92961 
L 322.333427 137.361693 
L 332.671319 125.503121 
L 341.860557 115.296771 
L 349.90114 106.660523 
L 357.941723 98.328757 
L 365.982307 90.328868 
L 372.874235 83.755906 
L 379.766163 77.462009 
L 386.658092 71.462373 
L 393.55002 65.771445 
L 400.441949 60.403006 
L 406.185222 56.18503 
L 411.928496 52.207068 
L 417.67177 48.475843 
L 423.415043 44.99758 
L 429.158317 41.778149 
L 434.901591 38.822878 
L 440.644864 36.136806 
L 446.388138 33.724387 
L 452.131412 31.58968 
L 457.874685 29.736287 
L 463.617959 28.167267 
L 468.212578 27.118638 
L 472.807197 26.254839 
L 477.401816 25.576805 
L 481.996435 25.085266 
L 486.591054 24.780742 
L 491.185673 24.663566 
L 495.780292 24.733884 
L 500.374911 24.991592 
L 504.969529 25.436398 
L 509.564148 26.067886 
L 514.158767 26.885327 
L 518.753386 27.887869 
L 523.348005 29.074407 
L 529.091279 30.814392 
L 534.834553 32.836981 
L 540.577826 35.13874 
L 546.3211 37.7159 
L 552.064374 40.56405 
L 557.807647 43.678441 
L 563.550921 47.053871 
L 569.294195 50.684636 
L 575.037468 54.564657 
L 580.780742 58.687481 
L 586.524016 63.046092 
L 593.415944 68.577462 
L 600.307872 74.424471 
L 607.199801 80.573153 
L 614.091729 87.008519 
L 620.983658 93.715081 
L 629.024241 101.860435 
L 637.064824 110.326155 
L 646.254062 120.357605 
L 655.4433 130.727905 
L 665.781192 142.74408 
L 677.26774 156.452798 
L 691.051597 173.274181 
L 711.727382 198.925571 
L 736.997786 230.231782 
L 750.781643 246.949176 
L 762.26819 260.535431 
L 772.606083 272.414394 
L 781.795321 282.641841 
L 790.984558 292.511412 
L 799.025142 300.820405 
L 807.065725 308.795533 
L 813.957653 315.345878 
L 820.849582 321.615836 
L 827.74151 327.590305 
L 834.633438 333.254816 
L 841.525367 338.595798 
L 847.268641 342.790116 
L 853.011914 346.743671 
L 858.755188 350.449906 
L 864.498462 353.902492 
L 870.241735 357.095747 
L 875.985009 360.02432 
L 881.728283 362.683227 
L 887.471556 365.068064 
L 893.21483 367.174783 
L 898.958104 368.999866 
L 904.701377 370.540263 
L 909.295996 371.565859 
L 913.890615 372.40649 
L 918.485234 373.06125 
L 923.079853 373.529433 
L 927.674472 373.810549 
L 932.269091 373.904286 
L 932.269091 373.904286 
" clip-path="url(#p26c49b969f)" style="fill: none; stroke: #008000; stroke-width: 3; stroke-linecap: square"/>
   </g>
   <g id="line2d_4">
    <path d="M 51.250909 373.904291 
L 59.291492 373.800818 
L 67.332075 373.488904 
L 75.372659 372.964209 
L 83.413242 372.219508 
L 91.453825 371.244934 
L 99.494408 370.028112 
L 107.534991 368.554455 
L 114.42692 367.074384 
L 121.318848 365.382081 
L 128.210776 363.465481 
L 135.102705 361.311964 
L 141.994633 358.90863 
L 148.886562 356.242436 
L 155.77849 353.300461 
L 161.521764 350.629047 
L 167.265037 347.75034 
L 173.008311 344.657657 
L 178.751585 341.344788 
L 184.494858 337.806022 
L 190.238132 334.036256 
L 195.981406 330.031086 
L 201.724679 325.786892 
L 207.467953 321.300888 
L 213.211227 316.571202 
L 218.9545 311.596959 
L 225.846429 305.305347 
L 232.738357 298.664273 
L 239.630286 291.678478 
L 246.522214 284.355275 
L 253.414142 276.704468 
L 260.306071 268.738551 
L 268.346654 259.067059 
L 276.387237 249.015917 
L 284.42782 238.618576 
L 293.617058 226.361139 
L 303.954951 212.171102 
L 316.590153 194.397575 
L 337.265938 164.820972 
L 353.347104 141.95907 
L 364.833652 126.020472 
L 374.02289 113.653145 
L 382.063473 103.196435 
L 388.955401 94.556857 
L 395.84733 86.258876 
L 402.739258 78.342066 
L 408.482532 72.063719 
L 414.225805 66.098097 
L 419.969079 60.465747 
L 425.712353 55.186236 
L 430.306972 51.229007 
L 434.901591 47.518307 
L 439.49621 44.062463 
L 444.090828 40.869469 
L 448.685447 37.946401 
L 453.280066 35.300067 
L 457.874685 32.936567 
L 462.469304 30.861312 
L 467.063923 29.079049 
L 471.658542 27.59394 
L 476.253161 26.409484 
L 479.699125 25.720085 
L 483.145089 25.202254 
L 486.591054 24.856639 
L 490.037018 24.683737 
L 493.482982 24.683737 
L 496.928946 24.856639 
L 500.374911 25.202254 
L 503.820875 25.720085 
L 507.266839 26.409484 
L 511.861458 27.593982 
L 516.456077 29.079049 
L 521.050696 30.861291 
L 525.645315 32.936567 
L 530.239934 35.300109 
L 534.834553 37.946443 
L 539.429172 40.869448 
L 544.02379 44.062526 
L 548.618409 47.518328 
L 553.213028 51.229007 
L 557.807647 55.186215 
L 563.550921 60.465768 
L 569.294195 66.098097 
L 575.037468 72.063719 
L 580.780742 78.342128 
L 586.524016 84.911906 
L 593.415944 93.149123 
L 600.307872 101.734496 
L 608.348456 112.136812 
L 616.389039 122.892071 
L 625.578277 135.530657 
L 637.064824 151.703378 
L 658.889264 182.929186 
L 674.97043 205.753701 
L 686.456978 221.673846 
L 695.646215 234.065903 
L 704.835453 246.079007 
L 712.876037 256.232722 
L 720.91662 266.015842 
L 727.808548 274.083478 
L 734.700476 281.840824 
L 741.592405 289.274526 
L 748.484333 296.373656 
L 755.376262 303.130308 
L 762.26819 309.538795 
L 769.160119 315.595936 
L 774.903392 320.374488 
L 780.646666 324.909145 
L 786.38994 329.201504 
L 792.133213 333.254186 
L 797.876487 337.070699 
L 803.619761 340.655267 
L 809.363034 344.012906 
L 815.106308 347.149134 
L 820.849582 350.070136 
L 827.74151 353.300486 
L 834.633438 356.24243 
L 841.525367 358.90863 
L 848.417295 361.311961 
L 855.309224 363.465504 
L 862.201152 365.382077 
L 869.09308 367.074387 
L 875.985009 368.554458 
L 882.876937 369.833688 
L 890.91752 371.086263 
L 898.958104 372.09462 
L 906.998687 372.871488 
L 915.03927 373.42712 
L 923.079853 373.769085 
L 931.120436 373.902181 
L 932.269091 373.904291 
L 932.269091 373.904291 
" clip-path="url(#p26c49b969f)" style="fill: none; stroke: #800080; stroke-width: 3; stroke-linecap: square"/>
   </g>
   <g id="patch_3">
    <path d="M 7.2 391.3664 
L 7.2 7.2 
" style="fill: none; stroke: #000000; stroke-linejoin: miter; stroke-linecap: square"/>
   </g>
   <g id="patch_4">
    <path d="M 976.32 391.3664 
L 976.32 7.2 
" style="fill: none; stroke: #000000; stroke-linejoin: miter; stroke-linecap: square"/>
   </g>
   <g id="patch_5">
    <path d="M 7.2 391.3664 
L 976.32 391.3664 
" style="fill: none; stroke: #000000; stroke-linejoin: miter; stroke-linecap: square"/>
   </g>
   <g id="patch_6">
    <path d="M 7.2 7.2 
L 976.32 7.2 
" style="fill: none; stroke: #000000; stroke-linejoin: miter; stroke-linecap: square"/>
   </g>
   <g id="legend_1">
    <g id="patch_7">
     <path d="M 165.45375 516.001352 
L 818.06625 516.001352 
Q 821.26625 516.001352 821.26625 512.801352 
L 821.26625 471.716352 
Q 821.26625 468.516352 818.06625 468.516352 
L 165.45375 468.516352 
Q 162.25375 468.516352 162.25375 471.716352 
L 162.25375 512.801352 
Q 162.25375 516.001352 165.45375 516.001352 
z
" style="fill: #ffffff; stroke: #000000; stroke-linejoin: miter"/>
    </g>
    <g id="line2d_5">
     <path d="M 178.25375 491.073852 
L 198.25375 491.073852 
L 218.25375 491.073852 
" style="fill: none; stroke: #0000ff; stroke-width: 3; stroke-linecap: square"/>
    </g>
    <g id="text_1">
     <!-- Rectangular -->
     <g transform="translate(231.05375 496.673852) scale(0.16 -0.16)">
      <defs>
       <path id="DejaVuSans-52" d="M 2841 2188 
Q 3044 2119 3236 1894 
Q 3428 1669 3622 1275 
L 4263 0 
L 3584 0 
L 2988 1197 
Q 2756 1666 2539 1819 
Q 2322 1972 1947 1972 
L 1259 1972 
L 1259 0 
L 628 0 
L 628 4666 
L 2053 4666 
Q 2853 4666 3247 4331 
Q 3641 3997 3641 3322 
Q 3641 2881 3436 2590 
Q 3231 2300 2841 2188 
z
M 1259 4147 
L 1259 2491 
L 2053 2491 
Q 2509 2491 2742 2702 
Q 2975 2913 2975 3322 
Q 2975 3731 2742 3939 
Q 2509 4147 2053 4147 
L 1259 4147 
z
" transform="scale(0.015625)"/>
       <path id="DejaVuSans-65" d="M 3597 1894 
L 3597 1613 
L 953 1613 
Q 991 1019 1311 708 
Q 1631 397 2203 397 
Q 2534 397 2845 478 
Q 3156 559 3463 722 
L 3463 178 
Q 3153 47 2828 -22 
Q 2503 -91 2169 -91 
Q 1331 -91 842 396 
Q 353 884 353 1716 
Q 353 2575 817 3079 
Q 1281 3584 2069 3584 
Q 2775 3584 3186 3129 
Q 3597 2675 3597 1894 
z
M 3022 2063 
Q 3016 2534 2758 2815 
Q 2500 3097 2075 3097 
Q 1594 3097 1305 2825 
Q 1016 2553 972 2059 
L 3022 2063 
z
" transform="scale(0.015625)"/>
       <path id="DejaVuSans-63" d="M 3122 3366 
L 3122 2828 
Q 2878 2963 2633 3030 
Q 2388 3097 2138 3097 
Q 1578 3097 1268 2742 
Q 959 2388 959 1747 
Q 959 1106 1268 751 
Q 1578 397 2138 397 
Q 2388 397 2633 464 
Q 2878 531 3122 666 
L 3122 134 
Q 2881 22 2623 -34 
Q 2366 -91 2075 -91 
Q 1284 -91 818 406 
Q 353 903 353 1747 
Q 353 2603 823 3093 
Q 1294 3584 2113 3584 
Q 2378 3584 2631 3529 
Q 2884 3475 3122 3366 
z
" transform="scale(0.015625)"/>
       <path id="DejaVuSans-74" d="M 1172 4494 
L 1172 3500 
L 2356 3500 
L 2356 3053 
L 1172 3053 
L 1172 1153 
Q 1172 725 1289 603 
Q 1406 481 1766 481 
L 2356 481 
L 2356 0 
L 1766 0 
Q 1100 0 847 248 
Q 594 497 594 1153 
L 594 3053 
L 172 3053 
L 172 3500 
L 594 3500 
L 594 4494 
L 1172 4494 
z
" transform="scale(0.015625)"/>
       <path id="DejaVuSans-61" d="M 2194 1759 
Q 1497 1759 1228 1600 
Q 959 1441 959 1056 
Q 959 750 1161 570 
Q 1363 391 1709 391 
Q 2188 391 2477 730 
Q 2766 1069 2766 1631 
L 2766 1759 
L 2194 1759 
z
M 3341 1997 
L 3341 0 
L 2766 0 
L 2766 531 
Q 2569 213 2275 61 
Q 1981 -91 1556 -91 
Q 1019 -91 701 211 
Q 384 513 384 1019 
Q 384 1609 779 1909 
Q 1175 2209 1959 2209 
L 2766 2209 
L 2766 2266 
Q 2766 2663 2505 2880 
Q 2244 3097 1772 3097 
Q 1472 3097 1187 3025 
Q 903 2953 641 2809 
L 641 3341 
Q 956 3463 1253 3523 
Q 1550 3584 1831 3584 
Q 2591 3584 2966 3190 
Q 3341 2797 3341 1997 
z
" transform="scale(0.015625)"/>
       <path id="DejaVuSans-6e" d="M 3513 2113 
L 3513 0 
L 2938 0 
L 2938 2094 
Q 2938 2591 2744 2837 
Q 2550 3084 2163 3084 
Q 1697 3084 1428 2787 
Q 1159 2491 1159 1978 
L 1159 0 
L 581 0 
L 581 3500 
L 1159 3500 
L 1159 2956 
Q 1366 3272 1645 3428 
Q 1925 3584 2291 3584 
Q 2894 3584 3203 3211 
Q 3513 2838 3513 2113 
z
" transform="scale(0.015625)"/>
       <path id="DejaVuSans-67" d="M 2906 1791 
Q 2906 2416 2648 2759 
Q 2391 3103 1925 3103 
Q 1463 3103 1205 2759 
Q 947 2416 947 1791 
Q 947 1169 1205 825 
Q 1463 481 1925 481 
Q 2391 481 2648 825 
Q 2906 1169 2906 1791 
z
M 3481 434 
Q 3481 -459 3084 -895 
Q 2688 -1331 1869 -1331 
Q 1566 -1331 1297 -1286 
Q 1028 -1241 775 -1147 
L 775 -588 
Q 1028 -725 1275 -790 
Q 1522 -856 1778 -856 
Q 2344 -856 2625 -561 
Q 2906 -266 2906 331 
L 2906 616 
Q 2728 306 2450 153 
Q 2172 0 1784 0 
Q 1141 0 747 490 
Q 353 981 353 1791 
Q 353 2603 747 3093 
Q 1141 3584 1784 3584 
Q 2172 3584 2450 3431 
Q 2728 3278 2906 2969 
L 2906 3500 
L 3481 3500 
L 3481 434 
z
" transform="scale(0.015625)"/>
       <path id="DejaVuSans-75" d="M 544 1381 
L 544 3500 
L 1119 3500 
L 1119 1403 
Q 1119 906 1312 657 
Q 1506 409 1894 409 
Q 2359 409 2629 706 
Q 2900 1003 2900 1516 
L 2900 3500 
L 3475 3500 
L 3475 0 
L 2900 0 
L 2900 538 
Q 2691 219 2414 64 
Q 2138 -91 1772 -91 
Q 1169 -91 856 284 
Q 544 659 544 1381 
z
M 1991 3584 
L 1991 3584 
z
" transform="scale(0.015625)"/>
       <path id="DejaVuSans-6c" d="M 603 4863 
L 1178 4863 
L 1178 0 
L 603 0 
L 603 4863 
z
" transform="scale(0.015625)"/>
       <path id="DejaVuSans-72" d="M 2631 2963 
Q 2534 3019 2420 3045 
Q 2306 3072 2169 3072 
Q 1681 3072 1420 2755 
Q 1159 2438 1159 1844 
L 1159 0 
L 581 0 
L 581 3500 
L 1159 3500 
L 1159 2956 
Q 1341 3275 1631 3429 
Q 1922 3584 2338 3584 
Q 2397 3584 2469 3576 
Q 2541 3569 2628 3553 
L 2631 2963 
z
" transform="scale(0.015625)"/>
      </defs>
      <use xlink:href="#DejaVuSans-52"/>
      <use xlink:href="#DejaVuSans-65" x="64.982422"/>
      <use xlink:href="#DejaVuSans-63" x="126.505859"/>
      <use xlink:href="#DejaVuSans-74" x="181.486328"/>
      <use xlink:href="#DejaVuSans-61" x="220.695312"/>
      <use xlink:href="#DejaVuSans-6e" x="281.974609"/>
      <use xlink:href="#DejaVuSans-67" x="345.353516"/>
      <use xlink:href="#DejaVuSans-75" x="408.830078"/>
      <use xlink:href="#DejaVuSans-6c" x="472.208984"/>
      <use xlink:href="#DejaVuSans-61" x="499.992188"/>
      <use xlink:href="#DejaVuSans-72" x="561.271484"/>
     </g>
    </g>
    <g id="line2d_6">
     <path d="M 359.43625 491.073852 
L 379.43625 491.073852 
L 399.43625 491.073852 
" style="fill: none; stroke: #ff0000; stroke-width: 3; stroke-linecap: square"/>
    </g>
    <g id="text_2">
     <!-- Hamming -->
     <g transform="translate(412.23625 496.673852) scale(0.16 -0.16)">
      <defs>
       <path id="DejaVuSans-48" d="M 628 4666 
L 1259 4666 
L 1259 2753 
L 3553 2753 
L 3553 4666 
L 4184 4666 
L 4184 0 
L 3553 0 
L 3553 2222 
L 1259 2222 
L 1259 0 
L 628 0 
L 628 4666 
z
" transform="scale(0.015625)"/>
       <path id="DejaVuSans-6d" d="M 3328 2828 
Q 3544 3216 3844 3400 
Q 4144 3584 4550 3584 
Q 5097 3584 5394 3201 
Q 5691 2819 5691 2113 
L 5691 0 
L 5113 0 
L 5113 2094 
Q 5113 2597 4934 2840 
Q 4756 3084 4391 3084 
Q 3944 3084 3684 2787 
Q 3425 2491 3425 1978 
L 3425 0 
L 2847 0 
L 2847 2094 
Q 2847 2600 2669 2842 
Q 2491 3084 2119 3084 
Q 1678 3084 1418 2786 
Q 1159 2488 1159 1978 
L 1159 0 
L 581 0 
L 581 3500 
L 1159 3500 
L 1159 2956 
Q 1356 3278 1631 3431 
Q 1906 3584 2284 3584 
Q 2666 3584 2933 3390 
Q 3200 3197 3328 2828 
z
" transform="scale(0.015625)"/>
       <path id="DejaVuSans-69" d="M 603 3500 
L 1178 3500 
L 1178 0 
L 603 0 
L 603 3500 
z
M 603 4863 
L 1178 4863 
L 1178 4134 
L 603 4134 
L 603 4863 
z
" transform="scale(0.015625)"/>
      </defs>
      <use xlink:href="#DejaVuSans-48"/>
      <use xlink:href="#DejaVuSans-61" x="75.195312"/>
      <use xlink:href="#DejaVuSans-6d" x="136.474609"/>
      <use xlink:href="#DejaVuSans-6d" x="233.886719"/>
      <use xlink:href="#DejaVuSans-69" x="331.298828"/>
      <use xlink:href="#DejaVuSans-6e" x="359.082031"/>
      <use xlink:href="#DejaVuSans-67" x="422.460938"/>
     </g>
    </g>
    <g id="line2d_7">
     <path d="M 521.98625 491.073852 
L 541.98625 491.073852 
L 561.98625 491.073852 
" style="fill: none; stroke: #008000; stroke-width: 3; stroke-linecap: square"/>
    </g>
    <g id="text_3">
     <!-- Hanning -->
     <g transform="translate(574.78625 496.673852) scale(0.16 -0.16)">
      <use xlink:href="#DejaVuSans-48"/>
      <use xlink:href="#DejaVuSans-61" x="75.195312"/>
      <use xlink:href="#DejaVuSans-6e" x="136.474609"/>
      <use xlink:href="#DejaVuSans-6e" x="199.853516"/>
      <use xlink:href="#DejaVuSans-69" x="263.232422"/>
      <use xlink:href="#DejaVuSans-6e" x="291.015625"/>
      <use xlink:href="#DejaVuSans-67" x="354.394531"/>
     </g>
    </g>
    <g id="line2d_8">
     <path d="M 673.64625 491.073852 
L 693.64625 491.073852 
L 713.64625 491.073852 
" style="fill: none; stroke: #800080; stroke-width: 3; stroke-linecap: square"/>
    </g>
    <g id="text_4">
     <!-- Blackman -->
     <g transform="translate(726.44625 496.673852) scale(0.16 -0.16)">
      <defs>
       <path id="DejaVuSans-42" d="M 1259 2228 
L 1259 519 
L 2272 519 
Q 2781 519 3026 730 
Q 3272 941 3272 1375 
Q 3272 1813 3026 2020 
Q 2781 2228 2272 2228 
L 1259 2228 
z
M 1259 4147 
L 1259 2741 
L 2194 2741 
Q 2656 2741 2882 2914 
Q 3109 3088 3109 3444 
Q 3109 3797 2882 3972 
Q 2656 4147 2194 4147 
L 1259 4147 
z
M 628 4666 
L 2241 4666 
Q 2963 4666 3353 4366 
Q 3744 4066 3744 3513 
Q 3744 3084 3544 2831 
Q 3344 2578 2956 2516 
Q 3422 2416 3680 2098 
Q 3938 1781 3938 1306 
Q 3938 681 3513 340 
Q 3088 0 2303 0 
L 628 0 
L 628 4666 
z
" transform="scale(0.015625)"/>
       <path id="DejaVuSans-6b" d="M 581 4863 
L 1159 4863 
L 1159 1991 
L 2875 3500 
L 3609 3500 
L 1753 1863 
L 3688 0 
L 2938 0 
L 1159 1709 
L 1159 0 
L 581 0 
L 581 4863 
z
" transform="scale(0.015625)"/>
      </defs>
      <use xlink:href="#DejaVuSans-42"/>
      <use xlink:href="#DejaVuSans-6c" x="68.603516"/>
      <use xlink:href="#DejaVuSans-61" x="96.386719"/>
      <use xlink:href="#DejaVuSans-63" x="157.666016"/>
      <use xlink:href="#DejaVuSans-6b" x="212.646484"/>
      <use xlink:href="#DejaVuSans-6d" x="270.556641"/>
      <use xlink:href="#DejaVuSans-61" x="367.96875"/>
      <use xlink:href="#DejaVuSans-6e" x="429.248047"/>
     </g>
    </g>
   </g>
  </g>
 </g>
 <defs>
  <clipPath id="p26c49b969f">
   <rect x="7.2" y="7.2" width="969.12" height="384.1664"/>
  </clipPath>
 </defs>
</svg>
