<?xml version="1.0" encoding="utf-8" standalone="no"?>
<!DOCTYPE svg PUBLIC "-//W3C//DTD SVG 1.1//EN"
  "http://www.w3.org/Graphics/SVG/1.1/DTD/svg11.dtd">
<svg xmlns:xlink="http://www.w3.org/1999/xlink" width="864pt" height="504pt" viewBox="0 0 864 504" xmlns="http://www.w3.org/2000/svg" version="1.1">
 <metadata>
  <rdf:RDF xmlns:dc="http://purl.org/dc/elements/1.1/" xmlns:cc="http://creativecommons.org/ns#" xmlns:rdf="http://www.w3.org/1999/02/22-rdf-syntax-ns#">
   <cc:Work>
    <dc:type rdf:resource="http://purl.org/dc/dcmitype/StillImage"/>
    <dc:date>2025-06-14T17:34:48.777330</dc:date>
    <dc:format>image/svg+xml</dc:format>
    <dc:creator>
     <cc:Agent>
      <dc:title>Matplotlib v3.9.2, https://matplotlib.org/</dc:title>
     </cc:Agent>
    </dc:creator>
   </cc:Work>
  </rdf:RDF>
 </metadata>
 <defs>
  <style type="text/css">*{stroke-linejoin: round; stroke-linecap: butt}</style>
 </defs>
 <g id="figure_1">
  <g id="patch_1">
   <path d="M 0 504 
L 864 504 
L 864 0 
L 0 0 
z
" style="fill: #ffffff"/>
  </g>
  <g id="axes_1">
   <g id="patch_2">
    <path d="M 10.8 493.2 
L 853.2 493.2 
L 853.2 10.8 
L 10.8 10.8 
z
" style="fill: #ffffff"/>
   </g>
   <g id="matplotlib.axis_1"/>
   <g id="matplotlib.axis_2"/>
   <g id="line2d_1">
    <path d="M 49.090909 466.956026 
L 51.090434 467.79052 
L 53.08996 456.114762 
L 55.089485 181.853867 
L 57.08901 32.727273 
L 59.088535 355.755649 
L 61.088061 466.887216 
L 63.087586 468.266055 
L 65.087111 468.300076 
L 67.086637 469.60178 
L 69.086162 417.244751 
L 71.085687 251.793086 
L 73.085212 325.338743 
L 75.084738 461.619304 
L 77.084263 470.15183 
L 79.083788 470.498813 
L 97.079516 470.977499 
L 107.077142 470.897593 
L 117.074769 470.745749 
L 119.074294 470.963221 
L 121.073819 462.073516 
L 123.073344 398.332704 
L 125.07287 393.636938 
L 127.072395 459.3899 
L 129.07192 471.007526 
L 131.071446 470.6066 
L 133.070971 470.537986 
L 155.065749 470.936767 
L 165.063375 471.092178 
L 167.062901 453.898115 
L 169.062426 425.174944 
L 171.061951 449.64758 
L 173.061476 470.873318 
L 175.061002 471.0978 
L 187.058153 471.144083 
L 327.024923 471.237897 
L 814.909091 471.272696 
L 814.909091 471.272696 
" clip-path="url(#p5b6ac27676)" style="fill: none; stroke: #1f77b4; stroke-width: 3; stroke-linecap: square"/>
   </g>
   <g id="patch_3">
    <path d="M 10.8 493.2 
L 10.8 10.8 
" style="fill: none; stroke: #000000; stroke-width: 0.8; stroke-linejoin: miter; stroke-linecap: square"/>
   </g>
   <g id="patch_4">
    <path d="M 853.2 493.2 
L 853.2 10.8 
" style="fill: none; stroke: #000000; stroke-width: 0.8; stroke-linejoin: miter; stroke-linecap: square"/>
   </g>
   <g id="patch_5">
    <path d="M 10.8 493.2 
L 853.2 493.2 
" style="fill: none; stroke: #000000; stroke-linejoin: miter; stroke-linecap: square"/>
   </g>
   <g id="patch_6">
    <path d="M 10.8 10.8 
L 853.2 10.8 
" style="fill: none; stroke: #000000; stroke-width: 0.8; stroke-linejoin: miter; stroke-linecap: square"/>
   </g>
  </g>
 </g>
 <defs>
  <clipPath id="p5b6ac27676">
   <rect x="10.8" y="10.8" width="842.4" height="482.4"/>
  </clipPath>
 </defs>
</svg>
